{
  "asset": {"version": "2.0", "generator": "VolkEngine deterministic reference fixture"},
  "scene": 0,
  "scenes": [{"name": "Reference Scene", "nodes": [0]}],
  "nodes": [
    {"name": "Root", "translation": [0.0, 0.0, 1.0], "children": [1, 2]},
    {"name": "Animated Ground Triangle", "mesh": 0, "translation": [-1.5, 0.0, 0.0], "scale": [2.0, 2.0, 2.0]},
    {"name": "Detail Triangle", "mesh": 1, "translation": [1.5, 0.0, 0.0], "scale": [2.0, 2.0, 2.0]}
  ],
  "animations": [{
    "name": "Triangle Move",
    "samplers": [{"input": 4, "output": 5, "interpolation": "LINEAR"}],
    "channels": [{"sampler": 0, "target": {"node": 1, "path": "translation"}}]
  }],
  "meshes": [
    {"name": "Ground Triangle", "primitives": [{
      "attributes": {"POSITION": 0, "NORMAL": 1, "TEXCOORD_0": 2},
      "indices": 3,
      "material": 0,
      "mode": 4
    }]},
    {"name": "Detail Triangle", "primitives": [{
      "attributes": {"POSITION": 0, "NORMAL": 1, "TEXCOORD_0": 2},
      "indices": 3,
      "material": 0,
      "mode": 4
    }]}
  ],
  "materials": [{
    "name": "Ground Material",
    "pbrMetallicRoughness": {
      "baseColorFactor": [1.0, 1.0, 1.0, 1.0],
      "baseColorTexture": {"index": 0},
      "metallicRoughnessTexture": {"index": 2},
      "roughnessFactor": 0.8
    },
    "normalTexture": {"index": 1}
  }],
  "textures": [
    {"sampler": 0, "source": 0},
    {"sampler": 0, "source": 1},
    {"sampler": 0, "source": 2}
  ],
  "samplers": [{"magFilter": 9729, "minFilter": 9987, "wrapS": 10497, "wrapT": 10497}],
  "images": [
    {"uri": "textures/ground_albedo.png"},
    {"uri": "textures/ground_normal.png"},
    {"uri": "textures/ground_orm.png"}
  ],
  "buffers": [{
    "byteLength": 102,
    "uri": "data:application/octet-stream;base64,"
  }, {
    "byteLength": 32,
    "uri": "data:application/octet-stream;base64,"
  }],
  "bufferViews": [
    {"buffer": 0, "byteOffset": 0, "byteLength": 36, "target": 34962},
    {"buffer": 0, "byteOffset": 36, "byteLength": 36, "target": 34962},
    {"buffer": 0, "byteOffset": 72, "byteLength": 24, "target": 34962},
    {"buffer": 0, "byteOffset": 96, "byteLength": 6, "target": 34963},
    {"buffer": 1, "byteOffset": 0, "byteLength": 8},
    {"buffer": 1, "byteOffset": 8, "byteLength": 24}
  ],
  "accessors": [
    {"bufferView": 0, "componentType": 5126, "count": 3, "type": "VEC3", "min": [-0.5, 0.0, 0.0], "max": [0.5, 1.0, 0.0]},
    {"bufferView": 1, "componentType": 5126, "count": 3, "type": "VEC3"},
    {"bufferView": 2, "componentType": 5126, "count": 3, "type": "VEC2"},
    {"bufferView": 3, "componentType": 5123, "count": 3, "type": "SCALAR"},
    {"bufferView": 4, "componentType": 5126, "count": 2, "type": "SCALAR", "min": [0.0], "max": [2.0]},
    {"bufferView": 5, "componentType": 5126, "count": 2, "type": "VEC3"}
  ]
}
